<mxfile host="app.diagrams.net" modified="2024-03-30T08:30:49.672Z" agent="Mozilla/5.0 (Windows NT 10.0; Win64; x64) AppleWebKit/537.36 (KHTML, like Gecko) Chrome/120.0.0.0 YaBrowser/24.1.0.0 Safari/537.36" etag="qn4gyVnvgNqXFEOZVVxg" version="24.0.7" type="device">
  <diagram name="Страница — 1" id="UJTAO7Dfwef4LmG8PHY-">
    <mxGraphModel dx="1105" dy="1766" grid="1" gridSize="10" guides="1" tooltips="1" connect="1" arrows="1" fold="1" page="1" pageScale="1" pageWidth="827" pageHeight="1169" background="#ffffff" math="0" shadow="0">
      <root>
        <mxCell id="0" />
        <mxCell id="1" parent="0" />
        <mxCell id="eoTzQeMYens-uSPxGoYu-2" value="gateway" style="rounded=1;whiteSpace=wrap;html=1;" parent="1" vertex="1">
          <mxGeometry x="340" width="120" height="40" as="geometry" />
        </mxCell>
        <mxCell id="eoTzQeMYens-uSPxGoYu-6" value="sso" style="rounded=1;whiteSpace=wrap;html=1;" parent="1" vertex="1">
          <mxGeometry x="520" width="120" height="40" as="geometry" />
        </mxCell>
        <mxCell id="eoTzQeMYens-uSPxGoYu-9" value="" style="endArrow=classic;html=1;rounded=0;entryX=0;entryY=0.25;entryDx=0;entryDy=0;exitX=1;exitY=0.25;exitDx=0;exitDy=0;" parent="1" source="eoTzQeMYens-uSPxGoYu-2" target="eoTzQeMYens-uSPxGoYu-6" edge="1">
          <mxGeometry width="50" height="50" relative="1" as="geometry">
            <mxPoint x="410" y="210" as="sourcePoint" />
            <mxPoint x="460" y="160" as="targetPoint" />
          </mxGeometry>
        </mxCell>
        <mxCell id="eoTzQeMYens-uSPxGoYu-11" value="userinfo" style="edgeLabel;html=1;align=center;verticalAlign=middle;resizable=0;points=[];" parent="eoTzQeMYens-uSPxGoYu-9" vertex="1" connectable="0">
          <mxGeometry x="0.1516" y="2" relative="1" as="geometry">
            <mxPoint x="-10" as="offset" />
          </mxGeometry>
        </mxCell>
        <mxCell id="eoTzQeMYens-uSPxGoYu-10" value="" style="endArrow=classic;html=1;rounded=0;exitX=0;exitY=0.75;exitDx=0;exitDy=0;entryX=1;entryY=0.75;entryDx=0;entryDy=0;" parent="1" source="eoTzQeMYens-uSPxGoYu-6" target="eoTzQeMYens-uSPxGoYu-2" edge="1">
          <mxGeometry width="50" height="50" relative="1" as="geometry">
            <mxPoint x="410" y="210" as="sourcePoint" />
            <mxPoint x="460" y="160" as="targetPoint" />
          </mxGeometry>
        </mxCell>
        <mxCell id="eoTzQeMYens-uSPxGoYu-15" value="jwt" style="edgeLabel;html=1;align=center;verticalAlign=middle;resizable=0;points=[];" parent="eoTzQeMYens-uSPxGoYu-10" vertex="1" connectable="0">
          <mxGeometry x="-0.0637" y="-2" relative="1" as="geometry">
            <mxPoint as="offset" />
          </mxGeometry>
        </mxCell>
        <mxCell id="eoTzQeMYens-uSPxGoYu-16" value="" style="endArrow=classic;html=1;rounded=0;exitX=0.75;exitY=1;exitDx=0;exitDy=0;entryX=0.75;entryY=0;entryDx=0;entryDy=0;" parent="1" source="eoTzQeMYens-uSPxGoYu-2" target="eoTzQeMYens-uSPxGoYu-4" edge="1">
          <mxGeometry width="50" height="50" relative="1" as="geometry">
            <mxPoint x="410" y="300" as="sourcePoint" />
            <mxPoint x="460" y="250" as="targetPoint" />
          </mxGeometry>
        </mxCell>
        <mxCell id="eoTzQeMYens-uSPxGoYu-17" value="orderinfo" style="edgeLabel;html=1;align=center;verticalAlign=middle;resizable=0;points=[];" parent="eoTzQeMYens-uSPxGoYu-16" vertex="1" connectable="0">
          <mxGeometry x="-0.1262" y="-3" relative="1" as="geometry">
            <mxPoint x="3" as="offset" />
          </mxGeometry>
        </mxCell>
        <mxCell id="eoTzQeMYens-uSPxGoYu-84" style="edgeStyle=orthogonalEdgeStyle;rounded=0;orthogonalLoop=1;jettySize=auto;html=1;entryX=0.5;entryY=0;entryDx=0;entryDy=0;" parent="1" source="eoTzQeMYens-uSPxGoYu-27" target="eoTzQeMYens-uSPxGoYu-45" edge="1">
          <mxGeometry relative="1" as="geometry" />
        </mxCell>
        <mxCell id="eoTzQeMYens-uSPxGoYu-98" value="orderinfo" style="edgeLabel;html=1;align=center;verticalAlign=middle;resizable=0;points=[];" parent="eoTzQeMYens-uSPxGoYu-84" vertex="1" connectable="0">
          <mxGeometry x="0.2267" y="-2" relative="1" as="geometry">
            <mxPoint as="offset" />
          </mxGeometry>
        </mxCell>
        <mxCell id="SRTIe_muLX2me-PoTJ3f-2" style="edgeStyle=orthogonalEdgeStyle;rounded=0;orthogonalLoop=1;jettySize=auto;html=1;exitX=0.5;exitY=0.5;exitDx=0;exitDy=0;exitPerimeter=0;entryX=0.5;entryY=0;entryDx=0;entryDy=0;" edge="1" parent="1" source="eoTzQeMYens-uSPxGoYu-34" target="SRTIe_muLX2me-PoTJ3f-1">
          <mxGeometry relative="1" as="geometry" />
        </mxCell>
        <mxCell id="eoTzQeMYens-uSPxGoYu-34" value="client" style="shape=umlActor;verticalLabelPosition=bottom;verticalAlign=top;html=1;outlineConnect=0;" parent="1" vertex="1">
          <mxGeometry x="385" y="-230" width="30" height="60" as="geometry" />
        </mxCell>
        <mxCell id="eoTzQeMYens-uSPxGoYu-39" value="" style="group" parent="1" vertex="1" connectable="0">
          <mxGeometry x="140" y="230" width="130" height="150" as="geometry" />
        </mxCell>
        <mxCell id="eoTzQeMYens-uSPxGoYu-31" value="redis" style="shape=cylinder3;whiteSpace=wrap;html=1;boundedLbl=1;backgroundOutline=1;size=15;" parent="eoTzQeMYens-uSPxGoYu-39" vertex="1">
          <mxGeometry x="35" width="60" height="80" as="geometry" />
        </mxCell>
        <mxCell id="eoTzQeMYens-uSPxGoYu-32" value="{&quot;orderid&quot;:&quot;state&quot;}" style="shape=note;whiteSpace=wrap;html=1;backgroundOutline=1;fontColor=#000000;darkOpacity=0.05;fillColor=#FFF9B2;strokeColor=none;fillStyle=solid;direction=west;gradientDirection=north;gradientColor=#FFF2A1;shadow=1;size=12;pointerEvents=1;" parent="eoTzQeMYens-uSPxGoYu-39" vertex="1">
          <mxGeometry y="110" width="130" height="40" as="geometry" />
        </mxCell>
        <mxCell id="eoTzQeMYens-uSPxGoYu-33" style="edgeStyle=orthogonalEdgeStyle;rounded=0;orthogonalLoop=1;jettySize=auto;html=1;entryX=0.5;entryY=1;entryDx=0;entryDy=0;entryPerimeter=0;" parent="eoTzQeMYens-uSPxGoYu-39" source="eoTzQeMYens-uSPxGoYu-32" target="eoTzQeMYens-uSPxGoYu-31" edge="1">
          <mxGeometry relative="1" as="geometry" />
        </mxCell>
        <mxCell id="eoTzQeMYens-uSPxGoYu-44" style="edgeStyle=orthogonalEdgeStyle;rounded=0;orthogonalLoop=1;jettySize=auto;html=1;exitX=0;exitY=0.5;exitDx=0;exitDy=0;entryX=1;entryY=0.5;entryDx=0;entryDy=0;entryPerimeter=0;" parent="1" source="eoTzQeMYens-uSPxGoYu-2" target="eoTzQeMYens-uSPxGoYu-41" edge="1">
          <mxGeometry relative="1" as="geometry" />
        </mxCell>
        <mxCell id="eoTzQeMYens-uSPxGoYu-40" value="" style="group" parent="1" vertex="1" connectable="0">
          <mxGeometry x="120" y="-20" width="130" height="150" as="geometry" />
        </mxCell>
        <mxCell id="eoTzQeMYens-uSPxGoYu-41" value="redis" style="shape=cylinder3;whiteSpace=wrap;html=1;boundedLbl=1;backgroundOutline=1;size=15;" parent="eoTzQeMYens-uSPxGoYu-40" vertex="1">
          <mxGeometry x="35" width="60" height="80" as="geometry" />
        </mxCell>
        <mxCell id="eoTzQeMYens-uSPxGoYu-42" value="{&quot;orderid&quot;:&quot;state&quot;}" style="shape=note;whiteSpace=wrap;html=1;backgroundOutline=1;fontColor=#000000;darkOpacity=0.05;fillColor=#FFF9B2;strokeColor=none;fillStyle=solid;direction=west;gradientDirection=north;gradientColor=#FFF2A1;shadow=1;size=12;pointerEvents=1;" parent="eoTzQeMYens-uSPxGoYu-40" vertex="1">
          <mxGeometry y="110" width="130" height="40" as="geometry" />
        </mxCell>
        <mxCell id="eoTzQeMYens-uSPxGoYu-43" style="edgeStyle=orthogonalEdgeStyle;rounded=0;orthogonalLoop=1;jettySize=auto;html=1;entryX=0.5;entryY=1;entryDx=0;entryDy=0;entryPerimeter=0;" parent="eoTzQeMYens-uSPxGoYu-40" source="eoTzQeMYens-uSPxGoYu-42" target="eoTzQeMYens-uSPxGoYu-41" edge="1">
          <mxGeometry relative="1" as="geometry" />
        </mxCell>
        <mxCell id="eoTzQeMYens-uSPxGoYu-50" style="edgeStyle=orthogonalEdgeStyle;rounded=0;orthogonalLoop=1;jettySize=auto;html=1;exitX=0.75;exitY=1;exitDx=0;exitDy=0;entryX=0.75;entryY=0;entryDx=0;entryDy=0;" parent="1" source="eoTzQeMYens-uSPxGoYu-45" target="eoTzQeMYens-uSPxGoYu-47" edge="1">
          <mxGeometry relative="1" as="geometry" />
        </mxCell>
        <mxCell id="eoTzQeMYens-uSPxGoYu-51" value="orderinfo" style="edgeLabel;html=1;align=center;verticalAlign=middle;resizable=0;points=[];" parent="eoTzQeMYens-uSPxGoYu-50" vertex="1" connectable="0">
          <mxGeometry x="-0.1386" relative="1" as="geometry">
            <mxPoint as="offset" />
          </mxGeometry>
        </mxCell>
        <mxCell id="eoTzQeMYens-uSPxGoYu-91" style="edgeStyle=orthogonalEdgeStyle;rounded=0;orthogonalLoop=1;jettySize=auto;html=1;exitX=0.25;exitY=0;exitDx=0;exitDy=0;entryX=0.25;entryY=1;entryDx=0;entryDy=0;" parent="1" source="eoTzQeMYens-uSPxGoYu-45" target="eoTzQeMYens-uSPxGoYu-2" edge="1">
          <mxGeometry relative="1" as="geometry">
            <mxPoint x="330" y="100.00000000000023" as="targetPoint" />
            <Array as="points">
              <mxPoint x="370" y="440" />
              <mxPoint x="110" y="440" />
              <mxPoint x="110" y="140" />
              <mxPoint x="370" y="140" />
            </Array>
          </mxGeometry>
        </mxCell>
        <mxCell id="eoTzQeMYens-uSPxGoYu-45" value="delivery" style="rounded=1;whiteSpace=wrap;html=1;" parent="1" vertex="1">
          <mxGeometry x="340" y="490" width="120" height="40" as="geometry" />
        </mxCell>
        <mxCell id="eoTzQeMYens-uSPxGoYu-47" value="order delivery accept" style="shape=parallelogram;perimeter=parallelogramPerimeter;whiteSpace=wrap;html=1;fixedSize=1;" parent="1" vertex="1">
          <mxGeometry x="310" y="575" width="160" height="40" as="geometry" />
        </mxCell>
        <mxCell id="eoTzQeMYens-uSPxGoYu-48" style="edgeStyle=orthogonalEdgeStyle;rounded=0;orthogonalLoop=1;jettySize=auto;html=1;exitX=0;exitY=0.5;exitDx=0;exitDy=0;entryX=1;entryY=0.5;entryDx=0;entryDy=0;entryPerimeter=0;" parent="1" source="eoTzQeMYens-uSPxGoYu-27" target="eoTzQeMYens-uSPxGoYu-31" edge="1">
          <mxGeometry relative="1" as="geometry">
            <Array as="points">
              <mxPoint x="310" y="375" />
              <mxPoint x="310" y="270" />
            </Array>
          </mxGeometry>
        </mxCell>
        <mxCell id="eoTzQeMYens-uSPxGoYu-56" style="edgeStyle=orthogonalEdgeStyle;rounded=0;orthogonalLoop=1;jettySize=auto;html=1;exitX=0;exitY=0.5;exitDx=0;exitDy=0;entryX=1;entryY=0.5;entryDx=0;entryDy=0;entryPerimeter=0;" parent="1" source="eoTzQeMYens-uSPxGoYu-21" target="eoTzQeMYens-uSPxGoYu-31" edge="1">
          <mxGeometry relative="1" as="geometry">
            <Array as="points">
              <mxPoint x="310" y="325" />
              <mxPoint x="310" y="270" />
            </Array>
          </mxGeometry>
        </mxCell>
        <mxCell id="eoTzQeMYens-uSPxGoYu-60" style="edgeStyle=orthogonalEdgeStyle;rounded=0;orthogonalLoop=1;jettySize=auto;html=1;exitX=0;exitY=0.5;exitDx=0;exitDy=0;entryX=1;entryY=0.5;entryDx=0;entryDy=0;entryPerimeter=0;" parent="1" source="eoTzQeMYens-uSPxGoYu-58" target="eoTzQeMYens-uSPxGoYu-53" edge="1">
          <mxGeometry relative="1" as="geometry">
            <mxPoint x="300" y="530" as="targetPoint" />
            <Array as="points">
              <mxPoint x="290" y="670" />
              <mxPoint x="290" y="520" />
            </Array>
          </mxGeometry>
        </mxCell>
        <mxCell id="eoTzQeMYens-uSPxGoYu-58" value="order delivered" style="shape=parallelogram;perimeter=parallelogramPerimeter;whiteSpace=wrap;html=1;fixedSize=1;" parent="1" vertex="1">
          <mxGeometry x="310" y="650" width="160" height="40" as="geometry" />
        </mxCell>
        <mxCell id="eoTzQeMYens-uSPxGoYu-59" style="edgeStyle=orthogonalEdgeStyle;rounded=0;orthogonalLoop=1;jettySize=auto;html=1;exitX=0;exitY=0.5;exitDx=0;exitDy=0;entryX=1;entryY=0.5;entryDx=0;entryDy=0;entryPerimeter=0;" parent="1" source="eoTzQeMYens-uSPxGoYu-47" target="eoTzQeMYens-uSPxGoYu-53" edge="1">
          <mxGeometry relative="1" as="geometry">
            <Array as="points">
              <mxPoint x="290" y="595" />
              <mxPoint x="290" y="520" />
            </Array>
          </mxGeometry>
        </mxCell>
        <mxCell id="eoTzQeMYens-uSPxGoYu-64" style="edgeStyle=orthogonalEdgeStyle;rounded=0;orthogonalLoop=1;jettySize=auto;html=1;entryX=1;entryY=0.5;entryDx=0;entryDy=0;" parent="1" source="eoTzQeMYens-uSPxGoYu-63" target="eoTzQeMYens-uSPxGoYu-47" edge="1">
          <mxGeometry relative="1" as="geometry" />
        </mxCell>
        <mxCell id="eoTzQeMYens-uSPxGoYu-93" value="orderid" style="edgeLabel;html=1;align=center;verticalAlign=middle;resizable=0;points=[];" parent="eoTzQeMYens-uSPxGoYu-64" vertex="1" connectable="0">
          <mxGeometry x="-0.1583" y="-4" relative="1" as="geometry">
            <mxPoint as="offset" />
          </mxGeometry>
        </mxCell>
        <mxCell id="eoTzQeMYens-uSPxGoYu-65" style="edgeStyle=orthogonalEdgeStyle;rounded=0;orthogonalLoop=1;jettySize=auto;html=1;entryX=1;entryY=0.5;entryDx=0;entryDy=0;" parent="1" source="eoTzQeMYens-uSPxGoYu-63" target="eoTzQeMYens-uSPxGoYu-58" edge="1">
          <mxGeometry relative="1" as="geometry">
            <Array as="points">
              <mxPoint x="595" y="670" />
            </Array>
          </mxGeometry>
        </mxCell>
        <mxCell id="eoTzQeMYens-uSPxGoYu-94" value="orderid" style="edgeLabel;html=1;align=center;verticalAlign=middle;resizable=0;points=[];" parent="eoTzQeMYens-uSPxGoYu-65" vertex="1" connectable="0">
          <mxGeometry x="0.0148" relative="1" as="geometry">
            <mxPoint as="offset" />
          </mxGeometry>
        </mxCell>
        <mxCell id="eoTzQeMYens-uSPxGoYu-63" value="courier" style="shape=umlActor;verticalLabelPosition=bottom;verticalAlign=top;html=1;outlineConnect=0;" parent="1" vertex="1">
          <mxGeometry x="580" y="565" width="30" height="60" as="geometry" />
        </mxCell>
        <mxCell id="eoTzQeMYens-uSPxGoYu-67" style="edgeStyle=orthogonalEdgeStyle;rounded=0;orthogonalLoop=1;jettySize=auto;html=1;exitX=0.5;exitY=0.5;exitDx=0;exitDy=0;exitPerimeter=0;entryX=1;entryY=0.5;entryDx=0;entryDy=0;" parent="1" source="eoTzQeMYens-uSPxGoYu-66" target="eoTzQeMYens-uSPxGoYu-21" edge="1">
          <mxGeometry relative="1" as="geometry">
            <Array as="points">
              <mxPoint x="585" y="325" />
            </Array>
          </mxGeometry>
        </mxCell>
        <mxCell id="eoTzQeMYens-uSPxGoYu-95" value="orderid" style="edgeLabel;html=1;align=center;verticalAlign=middle;resizable=0;points=[];" parent="eoTzQeMYens-uSPxGoYu-67" vertex="1" connectable="0">
          <mxGeometry x="-0.1119" relative="1" as="geometry">
            <mxPoint as="offset" />
          </mxGeometry>
        </mxCell>
        <mxCell id="eoTzQeMYens-uSPxGoYu-69" style="edgeStyle=orthogonalEdgeStyle;rounded=0;orthogonalLoop=1;jettySize=auto;html=1;entryX=1;entryY=0.5;entryDx=0;entryDy=0;" parent="1" source="eoTzQeMYens-uSPxGoYu-66" target="eoTzQeMYens-uSPxGoYu-27" edge="1">
          <mxGeometry relative="1" as="geometry">
            <Array as="points">
              <mxPoint x="585" y="375" />
            </Array>
          </mxGeometry>
        </mxCell>
        <mxCell id="eoTzQeMYens-uSPxGoYu-96" value="orderid" style="edgeLabel;html=1;align=center;verticalAlign=middle;resizable=0;points=[];" parent="eoTzQeMYens-uSPxGoYu-69" vertex="1" connectable="0">
          <mxGeometry x="0.0896" y="-3" relative="1" as="geometry">
            <mxPoint as="offset" />
          </mxGeometry>
        </mxCell>
        <mxCell id="eoTzQeMYens-uSPxGoYu-66" value="cook" style="shape=umlActor;verticalLabelPosition=bottom;verticalAlign=top;html=1;outlineConnect=0;" parent="1" vertex="1">
          <mxGeometry x="570" y="290" width="30" height="60" as="geometry" />
        </mxCell>
        <mxCell id="eoTzQeMYens-uSPxGoYu-78" value="" style="group" parent="1" vertex="1" connectable="0">
          <mxGeometry x="120" y="470" width="520" height="280" as="geometry" />
        </mxCell>
        <mxCell id="eoTzQeMYens-uSPxGoYu-71" value="" style="endArrow=none;html=1;rounded=0;" parent="eoTzQeMYens-uSPxGoYu-78" edge="1">
          <mxGeometry width="50" height="50" relative="1" as="geometry">
            <mxPoint as="sourcePoint" />
            <mxPoint x="520" as="targetPoint" />
          </mxGeometry>
        </mxCell>
        <mxCell id="eoTzQeMYens-uSPxGoYu-72" value="" style="endArrow=none;html=1;rounded=0;" parent="eoTzQeMYens-uSPxGoYu-78" edge="1">
          <mxGeometry width="50" height="50" relative="1" as="geometry">
            <mxPoint y="280" as="sourcePoint" />
            <mxPoint x="520" y="280" as="targetPoint" />
          </mxGeometry>
        </mxCell>
        <mxCell id="eoTzQeMYens-uSPxGoYu-76" value="" style="endArrow=none;html=1;rounded=0;" parent="eoTzQeMYens-uSPxGoYu-78" edge="1">
          <mxGeometry width="50" height="50" relative="1" as="geometry">
            <mxPoint y="280" as="sourcePoint" />
            <mxPoint as="targetPoint" />
          </mxGeometry>
        </mxCell>
        <mxCell id="eoTzQeMYens-uSPxGoYu-77" value="" style="endArrow=none;html=1;rounded=0;" parent="eoTzQeMYens-uSPxGoYu-78" edge="1">
          <mxGeometry width="50" height="50" relative="1" as="geometry">
            <mxPoint x="520" y="280" as="sourcePoint" />
            <mxPoint x="520" as="targetPoint" />
          </mxGeometry>
        </mxCell>
        <mxCell id="eoTzQeMYens-uSPxGoYu-53" value="redis" style="shape=cylinder3;whiteSpace=wrap;html=1;boundedLbl=1;backgroundOutline=1;size=15;" parent="eoTzQeMYens-uSPxGoYu-78" vertex="1">
          <mxGeometry x="55" y="10" width="60" height="80" as="geometry" />
        </mxCell>
        <mxCell id="eoTzQeMYens-uSPxGoYu-52" value="" style="group" parent="eoTzQeMYens-uSPxGoYu-78" vertex="1" connectable="0">
          <mxGeometry x="20" y="20" width="130" height="150" as="geometry" />
        </mxCell>
        <mxCell id="eoTzQeMYens-uSPxGoYu-54" value="{&quot;orderid&quot;:&quot;state&quot;}" style="shape=note;whiteSpace=wrap;html=1;backgroundOutline=1;fontColor=#000000;darkOpacity=0.05;fillColor=#FFF9B2;strokeColor=none;fillStyle=solid;direction=west;gradientDirection=north;gradientColor=#FFF2A1;shadow=1;size=12;pointerEvents=1;" parent="eoTzQeMYens-uSPxGoYu-52" vertex="1">
          <mxGeometry y="110" width="130" height="40" as="geometry" />
        </mxCell>
        <mxCell id="eoTzQeMYens-uSPxGoYu-55" style="edgeStyle=orthogonalEdgeStyle;rounded=0;orthogonalLoop=1;jettySize=auto;html=1;entryX=0.5;entryY=1;entryDx=0;entryDy=0;entryPerimeter=0;" parent="eoTzQeMYens-uSPxGoYu-78" source="eoTzQeMYens-uSPxGoYu-54" target="eoTzQeMYens-uSPxGoYu-53" edge="1">
          <mxGeometry relative="1" as="geometry" />
        </mxCell>
        <mxCell id="eoTzQeMYens-uSPxGoYu-79" value="" style="group" parent="1" vertex="1" connectable="0">
          <mxGeometry x="120" y="160" width="520" height="270" as="geometry" />
        </mxCell>
        <mxCell id="eoTzQeMYens-uSPxGoYu-80" value="" style="endArrow=none;html=1;rounded=0;" parent="eoTzQeMYens-uSPxGoYu-79" edge="1">
          <mxGeometry width="50" height="50" relative="1" as="geometry">
            <mxPoint as="sourcePoint" />
            <mxPoint x="520" as="targetPoint" />
          </mxGeometry>
        </mxCell>
        <mxCell id="eoTzQeMYens-uSPxGoYu-81" value="" style="endArrow=none;html=1;rounded=0;" parent="eoTzQeMYens-uSPxGoYu-79" edge="1">
          <mxGeometry width="50" height="50" relative="1" as="geometry">
            <mxPoint y="270" as="sourcePoint" />
            <mxPoint x="520" y="270" as="targetPoint" />
          </mxGeometry>
        </mxCell>
        <mxCell id="eoTzQeMYens-uSPxGoYu-82" value="" style="endArrow=none;html=1;rounded=0;" parent="eoTzQeMYens-uSPxGoYu-79" edge="1">
          <mxGeometry width="50" height="50" relative="1" as="geometry">
            <mxPoint y="270" as="sourcePoint" />
            <mxPoint as="targetPoint" />
          </mxGeometry>
        </mxCell>
        <mxCell id="eoTzQeMYens-uSPxGoYu-83" value="" style="endArrow=none;html=1;rounded=0;" parent="eoTzQeMYens-uSPxGoYu-79" edge="1">
          <mxGeometry width="50" height="50" relative="1" as="geometry">
            <mxPoint x="520" y="270" as="sourcePoint" />
            <mxPoint x="520" as="targetPoint" />
          </mxGeometry>
        </mxCell>
        <mxCell id="eoTzQeMYens-uSPxGoYu-4" value="kitchen" style="rounded=1;whiteSpace=wrap;html=1;" parent="eoTzQeMYens-uSPxGoYu-79" vertex="1">
          <mxGeometry x="220" y="96.42857142857143" width="120" height="38.57142857142857" as="geometry" />
        </mxCell>
        <mxCell id="eoTzQeMYens-uSPxGoYu-21" value="accept order" style="shape=parallelogram;perimeter=parallelogramPerimeter;whiteSpace=wrap;html=1;fixedSize=1;" parent="eoTzQeMYens-uSPxGoYu-79" vertex="1">
          <mxGeometry x="220" y="154.28571428571428" width="120" height="28.92857142857143" as="geometry" />
        </mxCell>
        <mxCell id="eoTzQeMYens-uSPxGoYu-22" style="edgeStyle=orthogonalEdgeStyle;rounded=0;orthogonalLoop=1;jettySize=auto;html=1;exitX=0.5;exitY=1;exitDx=0;exitDy=0;entryX=0.5;entryY=0;entryDx=0;entryDy=0;" parent="eoTzQeMYens-uSPxGoYu-79" source="eoTzQeMYens-uSPxGoYu-4" target="eoTzQeMYens-uSPxGoYu-21" edge="1">
          <mxGeometry relative="1" as="geometry" />
        </mxCell>
        <mxCell id="eoTzQeMYens-uSPxGoYu-27" value="order is ready" style="shape=parallelogram;perimeter=parallelogramPerimeter;whiteSpace=wrap;html=1;fixedSize=1;" parent="eoTzQeMYens-uSPxGoYu-79" vertex="1">
          <mxGeometry x="220" y="202.5" width="120" height="28.92857142857143" as="geometry" />
        </mxCell>
        <mxCell id="eoTzQeMYens-uSPxGoYu-85" value="postgres" style="shape=cylinder3;whiteSpace=wrap;html=1;boundedLbl=1;backgroundOutline=1;size=15;" parent="1" vertex="1">
          <mxGeometry x="710" y="-25" width="70" height="90" as="geometry" />
        </mxCell>
        <mxCell id="eoTzQeMYens-uSPxGoYu-86" style="edgeStyle=orthogonalEdgeStyle;rounded=0;orthogonalLoop=1;jettySize=auto;html=1;exitX=1;exitY=0.25;exitDx=0;exitDy=0;" parent="1" source="eoTzQeMYens-uSPxGoYu-6" edge="1">
          <mxGeometry relative="1" as="geometry">
            <mxPoint x="710" y="10" as="targetPoint" />
            <Array as="points">
              <mxPoint x="710" y="10" />
            </Array>
          </mxGeometry>
        </mxCell>
        <mxCell id="eoTzQeMYens-uSPxGoYu-87" value="" style="endArrow=classic;html=1;rounded=0;exitX=-0.006;exitY=0.603;exitDx=0;exitDy=0;exitPerimeter=0;entryX=1;entryY=0.75;entryDx=0;entryDy=0;" parent="1" source="eoTzQeMYens-uSPxGoYu-85" target="eoTzQeMYens-uSPxGoYu-6" edge="1">
          <mxGeometry width="50" height="50" relative="1" as="geometry">
            <mxPoint x="620" y="60" as="sourcePoint" />
            <mxPoint x="670" y="10" as="targetPoint" />
          </mxGeometry>
        </mxCell>
        <mxCell id="eoTzQeMYens-uSPxGoYu-89" style="edgeStyle=orthogonalEdgeStyle;rounded=0;orthogonalLoop=1;jettySize=auto;html=1;exitX=0.25;exitY=0;exitDx=0;exitDy=0;entryX=0.25;entryY=1;entryDx=0;entryDy=0;" parent="1" source="eoTzQeMYens-uSPxGoYu-4" target="eoTzQeMYens-uSPxGoYu-2" edge="1">
          <mxGeometry relative="1" as="geometry" />
        </mxCell>
        <mxCell id="eoTzQeMYens-uSPxGoYu-90" value="newstate" style="edgeLabel;html=1;align=center;verticalAlign=middle;resizable=0;points=[];" parent="eoTzQeMYens-uSPxGoYu-89" vertex="1" connectable="0">
          <mxGeometry x="0.2508" y="-1" relative="1" as="geometry">
            <mxPoint as="offset" />
          </mxGeometry>
        </mxCell>
        <mxCell id="eoTzQeMYens-uSPxGoYu-97" value="" style="swimlane;startSize=0;" parent="1" vertex="1">
          <mxGeometry x="510" y="-30" width="290" height="110" as="geometry" />
        </mxCell>
        <mxCell id="SRTIe_muLX2me-PoTJ3f-3" style="edgeStyle=orthogonalEdgeStyle;rounded=0;orthogonalLoop=1;jettySize=auto;html=1;exitX=0.333;exitY=1.042;exitDx=0;exitDy=0;entryX=0.25;entryY=0;entryDx=0;entryDy=0;exitPerimeter=0;" edge="1" parent="1" source="SRTIe_muLX2me-PoTJ3f-1" target="eoTzQeMYens-uSPxGoYu-2">
          <mxGeometry relative="1" as="geometry" />
        </mxCell>
        <mxCell id="SRTIe_muLX2me-PoTJ3f-1" value="gateway" style="ellipse;whiteSpace=wrap;html=1;" vertex="1" parent="1">
          <mxGeometry x="310" y="-120" width="180" height="80" as="geometry" />
        </mxCell>
        <mxCell id="SRTIe_muLX2me-PoTJ3f-4" value="" style="endArrow=classic;html=1;rounded=0;exitX=0.75;exitY=0;exitDx=0;exitDy=0;" edge="1" parent="1" source="eoTzQeMYens-uSPxGoYu-2">
          <mxGeometry width="50" height="50" relative="1" as="geometry">
            <mxPoint x="440" as="sourcePoint" />
            <mxPoint x="430" y="-40" as="targetPoint" />
          </mxGeometry>
        </mxCell>
      </root>
    </mxGraphModel>
  </diagram>
</mxfile>
